<?xml version="1.0" encoding="UTF-8" standalone="no"?>
<!-- Created with Inkscape (http://www.inkscape.org/) -->

<svg
   version="1.1"
   id="svg1"
   width="1177"
   height="1177"
   viewBox="0 0 1177 1177"
   sodipodi:docname="RafanixOSLogo.svg"
   xml:space="preserve"
   inkscape:export-filename="RafanixOSLogoCOMPLETO.svg"
   inkscape:export-xdpi="96"
   inkscape:export-ydpi="96"
   xmlns:inkscape="http://www.inkscape.org/namespaces/inkscape"
   xmlns:sodipodi="http://sodipodi.sourceforge.net/DTD/sodipodi-0.dtd"
   xmlns="http://www.w3.org/2000/svg"
   xmlns:svg="http://www.w3.org/2000/svg"><defs
     id="defs1" /><sodipodi:namedview
     id="namedview1"
     pagecolor="#ffffff"
     bordercolor="#000000"
     borderopacity="0.25"
     inkscape:showpageshadow="2"
     inkscape:pageopacity="0.0"
     inkscape:pagecheckerboard="0"
     inkscape:deskcolor="#d1d1d1" /><g
     inkscape:groupmode="layer"
     inkscape:label="Image"
     id="g1"><path
       id="path76"
       style="fill:#6347cb;fill-opacity:1;stroke-width:1.0079"
       d="m 991.64504,0.24380083 -15.67431,0.0977 c -23.19619,-0.0412 -41.84044,-0.12031 -73.3517,-0.0918 -24.14144,0.0218 -36.83442,0.10846 -55.68936,0.16211 v -0.004 H 557.24294 343.30267 129.36241 V 144.90782 c 0,1.10253 0,0.86149 0,1.94726 v 0.24805 0.60352 h -0.0559 l 0.0559,18.25976 v 59.9668 h 0.0833 l 0.21038,198.91991 c 0.0366,34.86162 0.14892,33.01682 0.18052,59.80273 V 596.9078 h 0.0457 v 65.44141 c -0.0538,34.85879 -0.2181,37.66377 -0.27377,90.30859 l -0.21028,198.91993 h -0.0833 v 60.61927 l -0.0538,17.6074 h 0.0538 v 146.9628 h 0.0894 v 0.336 h 213.94027 213.94026 289.68674 v 0 c 18.83309,0.054 31.49469,0.1384 55.5961,0.1602 31.51928,0.029 50.17166,-0.051 73.37161,-0.092 l 15.74765,0.098 -0.1666,-0.1172 c 46.51281,-0.1214 80.20771,-0.3446 84.53001,-0.7812 25.0044,-2.5257 48.548,-13.1906 66.8042,-30.2616 10.1955,-9.5337 16.5396,-18.0502 23.0392,-30.8828 1.0502,-1.7451 2.3192,-4.6947 3.7262,-8.0977 0.6053,-1.4188 1.1659,-2.8464 1.7003,-4.25 0.4687,-1.1969 1.008,-2.2586 1.4028,-3.9667 0.3979,-1.183 0.8653,-2.3762 1.2162,-3.5606 0.047,-0.1567 0.1292,-0.3174 0.1746,-0.4727 0.074,-0.2515 0.1158,-0.7173 0.1905,-0.9882 0.6481,-2.315 1.2549,-4.6355 1.7361,-6.9961 l 1.0158,-2.9824 v -1.4708 l 0.046,-0.1523 v -2.0996 c 0.1792,-1.2931 0.4373,-2.5337 0.5754,-3.8594 2e-4,-10e-4 -10e-5,-0.059 0,-0.061 0.01,-0.074 0.04,-0.1733 0.048,-0.2461 1.4724,-14.1244 1.4724,-960.71363 0,-974.83799 -0.1489,-1.428988 -0.4244,-2.768792 -0.621,-4.160162 v -3.42187 l -1.0158,-2.980469 c -0.8288,-4.06638 -1.9798,-8.04994 -3.3174,-12.02539 -0.3954,-1.71002 -0.9352,-2.77092 -1.4047,-3.968748 -0.6598,-1.73234 -1.3944,-3.50246 -2.1627,-5.25977 -0.9455,-2.23333 -1.7787,-4.12805 -2.5813,-5.65039 -0.1861,-0.3773 -0.3167,-0.73362 -0.5079,-1.11328 -6.5601,-13.02406 -12.9242,-21.58132 -23.2099,-31.19922 -18.2562,-17.07103 -41.8018,-27.7358302 -66.8062,-30.2617202 -4.3248,-0.43689 -38.0584,-0.66188997 -84.62125,-0.78320997 z" /></g></svg>
