<?xml version="1.0" encoding="UTF-8" standalone="no"?>
<!-- Created with Inkscape (http://www.inkscape.org/) -->

<svg
   version="1.1"
   id="svg1"
   width="1177"
   height="1177"
   viewBox="0 0 1177 1177"
   sodipodi:docname="RafanixOSLogo.svg"
   xml:space="preserve"
   xmlns:inkscape="http://www.inkscape.org/namespaces/inkscape"
   xmlns:sodipodi="http://sodipodi.sourceforge.net/DTD/sodipodi-0.dtd"
   xmlns="http://www.w3.org/2000/svg"
   xmlns:svg="http://www.w3.org/2000/svg"><defs
     id="defs1" /><sodipodi:namedview
     id="namedview1"
     pagecolor="#ffffff"
     bordercolor="#000000"
     borderopacity="0.25"
     inkscape:showpageshadow="2"
     inkscape:pageopacity="0.0"
     inkscape:pagecheckerboard="0"
     inkscape:deskcolor="#d1d1d1" /><g
     inkscape:groupmode="layer"
     inkscape:label="Image"
     id="g1"><path
       id="path76"
       style="fill:#6347cb;fill-opacity:1;stroke-width:1.0079"
       d="m 991.64504,0.24380083 -15.67431,0.0977 c -23.19619,-0.0412 -41.84044,-0.12031 -73.3517,-0.0918 -24.14144,0.0218 -36.83442,0.10846 -55.68936,0.16211 v -0.004 H 557.24294 343.30267 129.36241 V 144.90782 c 0,1.10253 0,0.86149 0,1.94726 v 0.24805 0.60352 h -0.0559 l 0.0559,18.25976 v 59.9668 h 0.0833 l 0.21038,198.91991 c 0.0366,34.86162 0.14892,33.01682 0.18052,59.80273 V 596.9078 h 0.0457 v 65.44141 c -0.0538,34.85879 -0.2181,37.66377 -0.27377,90.30859 l -0.21028,198.91993 h -0.0833 v 60.61927 l -0.0538,17.6074 h 0.0538 v 146.9628 h 0.0894 v 0.336 h 213.94027 213.94026 289.68674 v 0 c 18.83309,0.054 31.49469,0.1384 55.5961,0.1602 31.51928,0.029 50.17166,-0.051 73.37161,-0.092 l 15.74765,0.098 -0.1666,-0.1172 c 46.51281,-0.1214 80.20771,-0.3446 84.53001,-0.7812 25.0044,-2.5257 48.548,-13.1906 66.8042,-30.2616 10.1955,-9.5337 16.5396,-18.0502 23.0392,-30.8828 1.0502,-1.7451 2.3192,-4.6947 3.7262,-8.0977 0.6053,-1.4188 1.1659,-2.8464 1.7003,-4.25 0.4687,-1.1969 1.008,-2.2586 1.4028,-3.9667 0.3979,-1.183 0.8653,-2.3762 1.2162,-3.5606 0.047,-0.1567 0.1292,-0.3174 0.1746,-0.4727 0.074,-0.2515 0.1158,-0.7173 0.1905,-0.9882 0.6481,-2.315 1.2549,-4.6355 1.7361,-6.9961 l 1.0158,-2.9824 v -1.4708 l 0.046,-0.1523 v -2.0996 c 0.1792,-1.2931 0.4373,-2.5337 0.5754,-3.8594 2e-4,-10e-4 -10e-5,-0.059 0,-0.061 0.01,-0.074 0.04,-0.1733 0.048,-0.2461 1.4724,-14.1244 1.4724,-960.71363 0,-974.83799 -0.1489,-1.428988 -0.4244,-2.768792 -0.621,-4.160162 v -3.42187 l -1.0158,-2.980469 c -0.8288,-4.06638 -1.9798,-8.04994 -3.3174,-12.02539 -0.3954,-1.71002 -0.9352,-2.77092 -1.4047,-3.968748 -0.6598,-1.73234 -1.3944,-3.50246 -2.1627,-5.25977 -0.9455,-2.23333 -1.7787,-4.12805 -2.5813,-5.65039 -0.1861,-0.3773 -0.3167,-0.73362 -0.5079,-1.11328 -6.5601,-13.02406 -12.9242,-21.58132 -23.2099,-31.19922 -18.2562,-17.07103 -41.8018,-27.7358302 -66.8062,-30.2617202 -4.3248,-0.43689 -38.0584,-0.66188997 -84.62125,-0.78320997 z" /><path
       style="fill:#000000"
       d="M 101,1176.3381 C 62.973312,1172.6242 28.94514,1149.0438 11.76355,1114.5 7.7529546,1106.4367 3.679603,1094.3739 1.8019734,1085 c -1.92673682,-9.6191 -1.92673682,-983.38092 0,-993 C 9.8908662,51.616838 37.685131,19.299939 75.5,6.3099605 93.587298,0.09670026 64.26927,0.62361701 413.5,0.23527302 737.07657,-0.12454359 760.81332,0.08700632 789.5,3.5863112 877.19222,14.283325 948.80581,45.144204 1016.4065,101.3685 c 21.8233,18.15069 51.3462,49.21374 68.5553,72.1315 51.6582,68.79475 80.3977,153.37734 82.7364,243.5 1.9327,74.47814 -15.7575,148.40562 -51.3528,214.60337 -18.8967,35.14276 -43.5402,67.96353 -72.6024,96.69323 -22.4034,22.14708 -54.46585,47.6481 -75.87959,60.35121 -25.4531,15.09935 -50.15781,27.37879 -58.06842,28.86283 -4.39818,0.8251 -6.83619,-0.36303 -20.79499,-10.13418 -5.775,-4.0425 -17.25,-12.00665 -25.5,-17.69811 -8.25,-5.69146 -24.225,-16.80581 -35.5,-24.69856 -11.275,-7.89275 -29.95,-20.75605 -41.5,-28.5851 -32.93058,-22.32168 -36.45544,-24.84275 -35.70458,-25.53685 0.38752,-0.35823 6.77958,-1.63719 14.20458,-2.84212 20.05946,-3.25527 55.46572,-10.80214 63.85943,-13.6117 30.04922,-10.05811 49.0447,-19.77089 77.29737,-39.52374 18.05387,-12.62237 43.32775,-36.63883 59.33213,-56.38028 22.12885,-27.29599 43.59147,-72.87589 50.93957,-108.1794 5.8577,-28.14327 8.7002,-64.31534 6.6655,-84.8206 -4.4663,-45.00938 -15.9896,-82.56673 -35.65923,-116.22238 C 957.27541,237.67357 914.27302,197.77438 862.72255,173.56505 834.15378,160.14848 810.00593,153.39464 778.5,150.00909 754.27377,147.4058 711.42279,147.03339 434.22935,147.01708 L 143.95869,147 l 0.28882,277.75 c 0.30492,293.22777 0.11404,281.62604 4.72989,287.49413 1.07101,1.36157 10.40173,8.14213 20.73494,15.06791 10.33322,6.92578 28.91266,19.80126 41.28766,28.61219 12.375,8.81092 29.925,21.0666 39,27.23485 16.51733,11.22678 60.5574,41.93077 92.5,64.48945 19.15296,13.52631 58.76874,40.95698 84.70445,58.65086 31.78858,21.68686 45.16604,30.9194 63.29555,43.68388 9.9,6.97031 31.05,21.6147 47,32.5431 29.22833,20.02623 33.64878,23.11173 93.21499,65.06403 18.03176,12.6996 39.98501,27.9668 48.78501,33.927 24.12038,16.3367 52.78328,36.2811 74.10165,51.5621 18.23797,13.073 34.27683,24.0794 52.15502,35.7908 4.50899,2.9537 8.71342,5.9912 9.34319,6.75 0.97239,1.1717 -17.78031,1.3797 -124.37587,1.3797 h -125.5209 l -5.72939,-3.0138 c -3.15117,-1.6576 -9.60937,-5.8553 -14.35155,-9.3282 -4.74218,-3.4729 -13.79715,-9.8482 -20.12215,-14.1673 -6.325,-4.3192 -17.575,-12.1989 -25,-17.5105 -7.425,-5.3116 -20.025,-14.1456 -28,-19.6311 -30.97818,-21.3079 -101.38849,-70.0752 -118,-81.7287 -25.02752,-17.5576 -42.937,-29.9695 -70.87686,-49.1204 -16.04829,-11 -36.0287,-24.8691 -44.40092,-30.82023 C 230.35,945.72864 216.975,936.37927 209,930.90339 201.025,925.42751 187.975,916.20122 180,910.40053 159.13959,895.22752 148.14836,888 145.93447,888 144.03077,888 144,890.29839 144,1032.5 V 1177 l -19.75,-0.16 c -10.8625,-0.088 -21.325,-0.3139 -23.25,-0.5019 z m 887.92612,-2.5936 c -3.06564,-1.8626 -9.14064,-6.0821 -13.5,-9.3767 -4.35937,-3.2947 -13.77612,-10.0581 -20.92612,-15.03 -7.15,-4.9718 -20.51709,-14.3943 -29.70465,-20.9387 -28.24548,-20.1199 -64.34963,-45.3287 -82.24441,-57.4252 C 814.6967,1052.1451 782.70995,1030.1128 725.26916,990.19091 617.3576,915.19142 593.99148,899.00816 564,878.49669 547.225,867.02409 526.525,852.60626 518,846.45707 499.82186,833.34493 445.74783,795.83751 428.5,784.37709 410.29014,772.27744 375.19312,747.91766 359.5,736.48627 345.0348,725.94933 330.24507,715.67712 295,691.68778 283.725,684.01351 272.8125,676.12797 270.75,674.16434 L 267,670.5941 v -85.40404 c 0,-79.40986 0.11736,-85.359 1.67206,-84.76241 2.11788,0.81271 31.99416,21.00149 47.95664,32.40652 11.62896,8.30876 32.33167,22.5931 68.18528,47.04607 9.17731,6.25914 22.98602,15.74706 30.68602,21.08428 7.7,5.33721 30.2,20.89075 50,34.56341 19.8,13.67266 44.16686,30.50974 54.14858,37.41573 9.98172,6.90599 27.08172,18.58037 38,25.94307 18.87696,12.7296 35.21581,23.99057 85.65516,59.03477 12.20794,8.48182 38.0615,26.14761 57.45235,39.25732 19.39086,13.1097 45.94086,31.34471 59,40.52224 13.05915,9.17753 32.29391,22.59283 42.74391,29.81177 21.88508,15.11839 65.84624,45.73783 102,71.04415 13.75,9.6245 40.8759,28.39898 60.27978,41.72106 35.01312,24.03886 46.45272,31.96126 90.72022,62.82736 12.65,8.8204 31.1,21.6339 41,28.4743 9.9,6.8405 28.8965,19.9709 42.2145,29.1787 13.318,9.2079 24.2305,17.2084 24.25,17.7789 0.087,2.5425 -11.2264,17.7222 -18.9768,25.462 -15.3974,15.3763 -33.5607,25.3466 -55.8605,30.6629 -5.3336,1.2715 -15.1182,1.6667 -50.1272,2.0244 l -43.5,0.4445 z"
       id="path1" /></g></svg>
